<svg width="232" height="232" viewBox="0 0 232 232" fill="none" xmlns="http://www.w3.org/2000/svg">
<circle cx="116.73" cy="114.73" r="98.7297" fill="#1DD846" fill-opacity="0.3"/>
<circle cx="118.035" cy="115.165" r="65.2399" fill="white"/>
<circle cx="116" cy="116" r="116" fill="#1DD846" fill-opacity="0.1"/>
<circle cx="117.533" cy="116.511" r="76.652" fill="white"/>
<circle cx="115.552" cy="115.552" r="76.139" fill="white"/>
<path d="M114.656 35.9296C98.9084 35.9296 83.5142 40.5994 70.4203 49.3484C57.3265 58.0975 47.1211 70.5328 41.0946 85.0819C35.0682 99.631 33.4914 115.64 36.5637 131.086C39.6359 146.531 47.2192 160.718 58.3546 171.854C69.49 182.989 83.6774 190.572 99.1226 193.645C114.568 196.717 130.577 195.14 145.126 189.114C159.676 183.087 172.111 172.882 180.86 159.788C189.609 146.694 194.279 131.3 194.279 115.552C194.279 94.4349 185.89 74.1826 170.958 59.2505C156.026 44.3184 135.773 35.9296 114.656 35.9296ZM166.66 88.8288L101.27 154.169L62.6528 115.552C61.333 114.232 60.5915 112.442 60.5915 110.576C60.5915 108.709 61.333 106.919 62.6528 105.599C63.9726 104.279 65.7627 103.538 67.6292 103.538C69.4957 103.538 71.2858 104.279 72.6056 105.599L101.369 134.363L156.806 78.9755C157.46 78.322 158.236 77.8036 159.09 77.45C159.943 77.0963 160.859 76.9142 161.783 76.9142C162.707 76.9142 163.622 77.0963 164.476 77.45C165.33 77.8036 166.106 78.322 166.759 78.9755C167.413 79.6291 167.931 80.4049 168.285 81.2587C168.638 82.1126 168.82 83.0277 168.82 83.9519C168.82 84.8761 168.638 85.7913 168.285 86.6452C167.931 87.499 167.413 88.2748 166.759 88.9283L166.66 88.8288Z" fill="#37C455"/>
</svg>
